<svg width="100%" height="100%" viewBox="0 0 108 32" fill="none" xmlns="http://www.w3.org/2000/svg">
    <path fill-rule="evenodd" clip-rule="evenodd"
        d="M6.90734 16.3178L11.2968 15.7831C11.8075 15.7209 12.1705 15.2585 12.108 14.7508C12.0455 14.2427 11.5803 13.8815 11.0704 13.9437L7.85516 14.3353C8.21819 11.7442 9.42987 9.33842 11.3252 7.47991C13.4638 5.38272 16.2961 4.16467 19.2993 4.0502C21.9826 3.94849 24.5528 4.71193 26.7324 6.25939C28.5968 7.58307 30.0561 9.43064 30.9088 11.5277L29.5457 11.6937C29.0349 11.7559 28.6719 12.2183 28.7344 12.726C28.792 13.1959 29.1934 13.5401 29.6574 13.5401C29.6951 13.5401 29.7331 13.5381 29.7721 13.5331L41.1321 12.1495C41.6429 12.0873 42.0059 11.6249 41.9434 11.1172C41.8809 10.6091 41.4165 10.2475 40.9057 10.3101L33.2351 11.2443C32.7719 9.94325 32.1211 8.7195 31.2964 7.60015C30.392 6.37222 29.3014 5.30118 28.0548 4.41627C26.7949 3.52189 25.4083 2.84122 23.9336 2.39361C22.4085 1.93036 20.8195 1.72694 19.2124 1.78789C15.6401 1.92377 12.2714 3.37282 9.72721 5.86738C7.32896 8.21899 5.85097 11.3093 5.53021 14.6185L3.79826 14.8294C3.28752 14.8916 2.92454 15.354 2.98703 15.8618C3.04456 16.3316 3.44604 16.6759 3.91001 16.6759C3.94768 16.6759 3.98617 16.6738 4.02466 16.6689L6.61886 16.3529C6.62121 16.3529 6.62356 16.3529 6.62591 16.3529C6.72277 16.3529 6.8171 16.3407 6.90734 16.3178ZM19.7486 30.2219C18.3012 30.2219 16.8746 30.0061 15.4992 29.5791C13.9997 29.1134 12.5945 28.4076 11.3218 27.4807C8.88625 25.7069 7.05893 23.1835 6.14313 20.3419L1.04463 20.9629C1.00614 20.9674 0.968057 20.9699 0.929979 20.9699C0.466006 20.9699 0.0645303 20.6256 0.00699927 20.1558C-0.0554985 19.6481 0.307485 19.1856 0.818228 19.1235L9.12878 18.1113C9.6391 18.0487 10.1039 18.4103 10.1664 18.9184C10.2289 19.4261 9.86592 19.8885 9.35517 19.9507L8.45171 20.0608C9.25944 22.2815 10.7355 24.247 12.6665 25.6532C13.7364 26.4323 14.9177 27.0261 16.1776 27.4168C17.4809 27.8216 18.8405 27.9999 20.2188 27.9476C23.2758 27.8311 26.1445 26.5768 28.2963 24.4154C30.242 22.461 31.4387 19.9338 31.7158 17.227L25.2109 18.0194C25.172 18.024 25.1339 18.0264 25.0962 18.0264C24.6322 18.0264 24.2308 17.6822 24.1732 17.2124C24.1107 16.7046 24.4737 16.2422 24.9845 16.18L35.7805 14.8648C36.2912 14.8022 36.7556 15.1637 36.8181 15.6719C36.8806 16.1796 36.5176 16.642 36.0069 16.7042L34.0235 16.9458C33.7985 20.3593 32.3498 23.5622 29.9134 26.0094C27.3539 28.5801 23.9418 30.0724 20.3057 30.2108C20.1199 30.2182 19.934 30.2219 19.7486 30.2219Z"
        fill="url(#paint0_linear_9084_10331)"></path>
    <path fill-rule="evenodd" clip-rule="evenodd"
        d="M13.8942 14.5333C13.9517 15.0032 14.3532 15.3474 14.8171 15.3474C14.8552 15.3474 14.8933 15.3454 14.9318 15.3404L26.0911 13.9811C26.6019 13.919 26.9649 13.4565 26.9024 12.9488C26.8399 12.4407 26.3751 12.0796 25.8647 12.1417L14.7054 13.501C14.1946 13.5632 13.8317 14.0256 13.8942 14.5333ZM12.0031 18.6947C12.0606 19.1645 12.4621 19.5088 12.9261 19.5088C12.9637 19.5088 13.0018 19.5067 13.0407 19.5018L21.3343 18.4917C21.845 18.4295 22.208 17.967 22.1455 17.4593C22.083 16.9512 21.6182 16.5896 21.1079 16.6522L12.8143 17.6623C12.3036 17.7245 11.9406 18.1869 12.0031 18.6947Z"
        fill="url(#paint1_linear_9084_10331)"></path>
    <path fill-rule="evenodd" clip-rule="evenodd"
        d="M81.4865 8.613C81.6748 8.59031 81.7776 8.72645 81.7776 8.89662V23.4517C81.7776 23.6029 81.6612 23.7334 81.4865 23.7334H79.9143C79.759 23.7334 79.6231 23.6029 79.6231 23.4517V22.4477C78.9631 23.1662 77.8179 24 76.0516 24C72.713 24 70.3838 21.6158 70.3838 18.2124C70.3838 14.8279 72.713 12.3888 75.9371 12.3888C77.8179 12.3888 78.9826 13.3153 79.5668 13.9393V9.09325C79.5668 8.92309 79.6852 8.82288 79.856 8.80775L81.4865 8.613ZM102.16 12.3888C104.041 12.3888 105.207 13.3153 105.79 13.9393V12.9372C105.79 12.767 105.923 12.6554 106.079 12.6554H107.711C107.886 12.6554 108 12.767 108 12.9372V23.4517C108 23.6029 107.886 23.7334 107.711 23.7334H106.137C105.982 23.7334 105.848 23.6029 105.848 23.4517V22.4477C105.186 23.1662 104.041 24 102.274 24C98.9357 24 96.6065 21.6158 96.6065 18.2124C96.6065 14.8279 98.9357 12.3888 102.16 12.3888ZM55.1679 8.61187C55.3678 8.58918 55.4571 8.74611 55.4571 8.89737V19.081C55.4571 21.522 53.9043 23.9989 50.4299 23.9989C48.1026 23.9989 45.5773 22.6356 45.521 19.669C45.521 19.5934 45.5579 19.5178 45.618 19.461C45.6549 19.4024 45.7326 19.3854 45.8102 19.3854H47.4989C47.6542 19.3854 47.792 19.4989 47.792 19.6501C47.8289 21.0304 48.877 21.9001 50.4881 21.9001C52.4893 21.9001 53.1861 20.4064 53.1861 19.1207L53.1939 9.15451C53.1939 9.00136 53.3278 8.86901 53.4831 8.86901L55.1679 8.61187ZM63.3575 12.3892C66.6572 12.3892 68.8914 14.6581 68.8914 18.0426V18.7611C68.8914 18.9123 68.7535 19.0447 68.5983 19.0447H60.0966C60.2907 20.8598 61.5717 21.9754 63.4934 21.9754C64.9103 21.9754 66.0943 21.2947 66.5214 20.2548C66.5602 20.1413 66.6766 20.0657 66.795 20.0657H68.5012C68.5788 20.0657 68.6759 20.1035 68.7361 20.1792C68.773 20.2548 68.7924 20.3493 68.773 20.425C68.113 22.5993 66.0167 23.9985 63.4759 23.9985C60.116 23.9985 57.7673 21.5972 57.7673 18.1939C57.7673 14.8283 60.1354 12.3892 63.3575 12.3892ZM86.6694 8.00323C86.8538 7.97676 86.9606 8.11668 86.9606 8.28495V13.7133C87.5623 13.0119 88.6299 12.3879 90.1244 12.3879C92.706 12.3879 94.4918 14.203 94.4918 16.8331V23.4507C94.4918 23.602 94.3559 23.7325 94.2025 23.7325H92.5507C92.3954 23.7325 92.2615 23.602 92.2615 23.4507V16.9276C92.2615 15.5095 91.1726 14.4507 89.7362 14.4507C88.1834 14.4507 86.9606 15.5852 86.9606 17.06V23.4507C86.9606 23.602 86.8247 23.7325 86.6694 23.7325H85.0195C84.8643 23.7325 84.7284 23.602 84.7284 23.4507V8.50617C84.7284 8.33411 84.8662 8.23769 85.0195 8.22067L86.6694 8.00323ZM76.1098 14.412C74.0737 14.412 72.6548 15.9643 72.6548 18.2124C72.6548 20.5002 74.0135 21.9939 76.1487 21.9939C78.2081 21.9939 79.6231 20.4454 79.6231 18.2124C79.6231 15.9435 78.2081 14.412 76.1098 14.412ZM102.333 14.412C100.296 14.412 98.8775 15.9643 98.8775 18.2124C98.8775 20.5002 100.256 21.9939 102.373 21.9939C104.431 21.9939 105.848 20.4454 105.848 18.2124C105.848 15.9435 104.431 14.412 102.333 14.412ZM63.3575 14.4123C61.7464 14.4123 60.4459 15.509 60.1567 17.0594H66.5214C66.2884 15.4333 65.0869 14.4123 63.3575 14.4123Z"
        fill="#145774"></path>
    <defs>
        <linearGradient id="paint0_linear_9084_10331" x1="9.00121" y1="27.9996" x2="25.3607"
            y2="3.24376" gradientUnits="userSpaceOnUse">
            <stop stop-color="#174864"></stop>
            <stop offset="0.965796" stop-color="#2E6686"></stop>
        </linearGradient>
        <linearGradient id="paint1_linear_9084_10331" x1="19.4527" y1="12.1348" x2="15.2204"
            y2="19.1295" gradientUnits="userSpaceOnUse">
            <stop stop-color="#47E8E0"></stop>
            <stop offset="1" stop-color="#27C4BC"></stop>
        </linearGradient>
    </defs>
</svg>