<?xml version="1.0" encoding="UTF-8"?>
<svg version="1.1" xmlns="http://www.w3.org/2000/svg" width="446" height="179">
<path d="M0 0 C0.01458252 1.1552417 0.02916504 2.3104834 0.04418945 3.50073242 C0.10226822 7.79677912 0.1795005 12.09230694 0.26245117 16.38793945 C0.29565549 18.2452755 0.32370141 20.10271137 0.34643555 21.96020508 C0.38006442 24.63405798 0.43238374 27.30699993 0.48828125 29.98046875 C0.49467117 30.80773972 0.5010611 31.63501068 0.50764465 32.48735046 C0.62513056 37.11951106 1.00100227 40.23711963 4 44 C6.9615696 45.4807848 9.83506295 45.35314037 13.125 45.5625 C14.40632813 45.64628906 15.68765625 45.73007813 17.0078125 45.81640625 C18.48894531 45.90728516 18.48894531 45.90728516 20 46 C19.97381592 44.80922852 19.94763184 43.61845703 19.9206543 42.39160156 C19.83011439 37.97121999 19.77273714 33.55092023 19.7253418 29.12988281 C19.70020619 27.21698217 19.66609216 25.30417749 19.62280273 23.39160156 C19.56210748 20.64103527 19.53378155 17.89173901 19.51171875 15.140625 C19.48591232 14.28631897 19.4601059 13.43201294 19.43351746 12.55181885 C19.43070539 6.5909969 19.43070539 6.5909969 22.40161133 3.50683594 C23.25907959 3.00958008 24.11654785 2.51232422 25 2 C25.680625 1.5875 26.36125 1.175 27.0625 0.75 C29 0 29 0 33 0 C33 18.15 33 36.3 33 55 C25.77523845 56.60550257 20.19842708 57.36505742 13 57.375 C12.06671875 57.39949219 11.1334375 57.42398438 10.171875 57.44921875 C3.76935999 57.47604493 -1.54206404 56.50359691 -7 53 C-14.21662373 45.35331584 -13.30927859 36.51045974 -13.4050293 26.59204102 C-13.42665612 24.90726279 -13.46081481 23.22259832 -13.50756836 21.53833008 C-13.57457167 19.09926643 -13.60201755 16.66251015 -13.62109375 14.22265625 C-13.64892441 13.47355484 -13.67675507 12.72445343 -13.70542908 11.95265198 C-13.69408918 9.06114382 -13.58021475 6.72307324 -11.72756958 4.41427612 C-7.87096948 1.07842922 -5.07096765 0 0 0 Z " fill="#83B817" transform="translate(31,69)"/>
<path d="M0 0 C1.60299483 4.20786142 2.10043342 7.51815878 2 12 C2.72703125 11.96519531 3.4540625 11.93039063 4.203125 11.89453125 C11.93284049 11.68642353 18.60206823 12.79636075 26 15 C26 15.66 26 16.32 26 17 C22.54372619 18.33871641 19.08465703 19.67005392 15.625 21 C14.64015625 21.3815625 13.6553125 21.763125 12.640625 22.15625 C11.69960938 22.5171875 10.75859375 22.878125 9.7890625 23.25 C8.91975098 23.58515625 8.05043945 23.9203125 7.15478516 24.265625 C5 25 5 25 3 25 C2.96261719 25.82242188 2.92523438 26.64484375 2.88671875 27.4921875 C2.46019124 34.73479187 1.45264219 41.1665378 -1 48 C-4.19053061 47.42279697 -5.7826903 46.56771571 -8.0234375 44.2421875 C-8.84328125 43.42814453 -8.84328125 43.42814453 -9.6796875 42.59765625 C-10.8099844 41.44912876 -11.93243136 40.29282285 -13.046875 39.12890625 C-13.87058594 38.31873047 -13.87058594 38.31873047 -14.7109375 37.4921875 C-15.19868652 36.99058105 -15.68643555 36.48897461 -16.18896484 35.97216797 C-19.02929723 34.4474708 -20.94266624 35.20536569 -24 36 C-26.07350872 36.83860336 -28.11789446 37.75167772 -30.1328125 38.72265625 C-31.26847656 39.26083984 -32.40414063 39.79902344 -33.57421875 40.35351562 C-35.94927585 41.49662616 -38.32427548 42.63985612 -40.69921875 43.78320312 C-41.83230469 44.32009766 -42.96539062 44.85699219 -44.1328125 45.41015625 C-45.16293457 45.90652588 -46.19305664 46.40289551 -47.25439453 46.91430664 C-50 48 -50 48 -54 48 C-46.63335311 31.86172718 -19.40051346 0 0 0 Z " fill="#83B817" transform="translate(403,17)"/>
<path d="M0 0 C1.546875 0.99 1.546875 0.99 3.125 2 C3.125 6.29 3.125 10.58 3.125 15 C1.805 14.34 0.485 13.68 -0.875 13 C-5.78449084 10.59157053 -9.38676103 9.47228471 -14.875 10 C-15.865 10.66 -16.855 11.32 -17.875 12 C-18.0863453 14.3912295 -18.0863453 14.3912295 -16.875 17 C-14.03856963 18.715483 -10.96110316 19.80929878 -7.875 21 C-2.0627627 23.44671446 1.46794664 25.79146945 5.125 31 C6.93705684 36.43617053 6.8349836 41.98215186 4.9375 47.375 C1.83193853 51.87270971 -1.7129392 54.33872905 -6.875 56 C-9.54795006 56.21484045 -12.08113398 56.32497134 -14.75 56.3125 C-15.43191406 56.32861328 -16.11382812 56.34472656 -16.81640625 56.36132812 C-21.86577096 56.36613704 -25.36593228 55.27759815 -29.875 53 C-30.875 52 -30.875 52 -30.97265625 49.27734375 C-30.96105469 48.17519531 -30.94945312 47.07304688 -30.9375 45.9375 C-30.92847656 44.83277344 -30.91945312 43.72804687 -30.91015625 42.58984375 C-30.89855469 41.73519531 -30.88695312 40.88054687 -30.875 40 C-28.18110005 40.60189088 -26.21487051 41.32359289 -23.6875 42.5625 C-19.53147317 44.39366517 -15.35467304 44.66847834 -10.875 44 C-7.6506937 42.35862883 -7.6506937 42.35862883 -7.375 39.5625 C-7.6027569 36.81902132 -7.6027569 36.81902132 -10.03125 35.48828125 C-12.92689265 33.9728419 -15.82126282 32.78573173 -18.875 31.625 C-24.31819544 29.40888968 -28.16813573 27.41372855 -30.875 22 C-31.35194195 15.90139802 -31.73690815 10.08294469 -29.375 4.375 C-21.49025502 -3.11550774 -9.95770242 -4.96113288 0 0 Z " fill="#2C2825" transform="translate(251.875,70)"/>
<path d="M0 0 C5.11709523 3.80501953 7.22874333 7.56725719 8.4375 13.8125 C8.4375 17.4425 8.4375 21.0725 8.4375 24.8125 C-0.4725 24.8125 -9.3825 24.8125 -18.5625 24.8125 C-14.81349455 29.980695 -14.81349455 29.980695 -9.5625 31.8125 C-3.65230456 31.71198647 1.83627403 30.63898673 7.4375 28.8125 C7.4375 32.4425 7.4375 36.0725 7.4375 39.8125 C2.04573579 42.49772645 -2.13443274 43.28334908 -8.125 43.1875 C-8.85396484 43.19910156 -9.58292969 43.21070313 -10.33398438 43.22265625 C-16.47278718 43.1895034 -20.53224818 41.55946087 -25.25 37.5 C-30.73102756 31.13015716 -31.09812781 25.61202063 -30.90625 17.44921875 C-30.26729014 10.68931387 -27.97985184 6.8695273 -23 2.375 C-16.71582991 -2.76150428 -7.4402444 -2.48008147 0 0 Z M-17.5625 12.8125 C-17.8925 14.1325 -18.2225 15.4525 -18.5625 16.8125 C-13.6125 16.8125 -8.6625 16.8125 -3.5625 16.8125 C-3.8925 14.8325 -4.2225 12.8525 -4.5625 10.8125 C-9.92522244 7.23735171 -13.11237063 8.36237063 -17.5625 12.8125 Z " fill="#2C2825" transform="translate(375.5625,83.1875)"/>
<path d="M0 0 C3.69325932 2.26607062 5.15208102 4.682448 6.21655273 8.84838867 C6.73182954 12.16113212 6.76036182 15.32278528 6.74609375 18.67578125 C6.7446788 19.33458786 6.74326385 19.99339447 6.74180603 20.67216492 C6.7362425 22.76065762 6.72369697 24.84904011 6.7109375 26.9375 C6.70591778 28.36002449 6.7013557 29.78255066 6.69726562 31.20507812 C6.68628507 34.67842077 6.66904585 38.15169961 6.6484375 41.625 C1.66648113 42.71677758 -3.08077448 42.88139307 -8.1640625 42.9375 C-9.02837891 42.96650391 -9.89269531 42.99550781 -10.78320312 43.02539062 C-16.76985736 43.08412761 -21.39822698 42.12709777 -26.3515625 38.625 C-29.05372007 35.1040068 -29.57427138 32.38736275 -29.3515625 28.0625 C-28.65387705 23.55787875 -27.04866964 21.39783036 -23.3515625 18.625 C-19.45394301 16.7062748 -16.3604679 16.40502406 -12.0390625 16.5 C-10.97042969 16.51804687 -9.90179688 16.53609375 -8.80078125 16.5546875 C-7.99253906 16.57789062 -7.18429687 16.60109375 -6.3515625 16.625 C-7.0115625 14.645 -7.6715625 12.665 -8.3515625 10.625 C-14.81994833 9.07821208 -19.0865508 10.47944805 -25.3515625 12.625 C-25.3515625 8.995 -25.3515625 5.365 -25.3515625 1.625 C-17.97588425 -2.69247019 -7.88381131 -3.23438413 0 0 Z M-16.3515625 26.625 C-16.8515625 29.125 -16.8515625 29.125 -16.3515625 31.625 C-12.7073851 34.0544516 -10.63914978 33.78679575 -6.3515625 33.625 C-6.3515625 30.655 -6.3515625 27.685 -6.3515625 24.625 C-11.67326744 24.32937633 -11.67326744 24.32937633 -16.3515625 26.625 Z " fill="#2C2825" transform="translate(290.3515625,83.375)"/>
<path d="M0 0 C0.75474609 -0.01998047 1.50949219 -0.03996094 2.28710938 -0.06054688 C7.90724781 -0.05568095 11.32060387 0.98606798 15.8125 4.4375 C18.50862639 9.53236282 19.17584993 13.27945542 19.10546875 19.12109375 C19.10122391 19.82146255 19.09697906 20.52183136 19.09260559 21.24342346 C19.07597156 23.45436 19.0383518 25.66434457 19 27.875 C18.98493326 29.38475235 18.97124836 30.89451916 18.95898438 32.40429688 C18.92611921 36.08233434 18.87444582 39.75982407 18.8125 43.4375 C14.8525 43.4375 10.8925 43.4375 6.8125 43.4375 C6.79791748 42.60500732 6.78333496 41.77251465 6.76831055 40.91479492 C6.7072137 37.82260347 6.63305444 34.73107918 6.55004883 31.6394043 C6.50048681 29.6445937 6.46598867 27.64942743 6.43164062 25.65429688 C6.3784668 23.77387695 6.3784668 23.77387695 6.32421875 21.85546875 C6.29803467 20.69813232 6.27185059 19.5407959 6.24487305 18.34838867 C6.05542396 15.0848822 6.05542396 15.0848822 2.8125 12.4375 C-0.4875 12.4375 -3.7875 12.4375 -7.1875 12.4375 C-7.1875 22.6675 -7.1875 32.8975 -7.1875 43.4375 C-11.1475 43.4375 -15.1075 43.4375 -19.1875 43.4375 C-19.1875 30.2375 -19.1875 17.0375 -19.1875 3.4375 C-12.07773297 1.30456989 -7.09707134 -0.0677084 0 0 Z " fill="#83B817" transform="translate(93.1875,81.5625)"/>
<path d="M0 0 C2.56180003 2.09134034 4.10113459 3.37926722 5.72265625 6.22265625 C5.97924074 8.98530789 6.07291219 11.51341184 6.015625 14.26953125 C6.01138016 15.04073303 6.00713531 15.81193481 6.00276184 16.60650635 C5.98601008 19.0622494 5.94836564 21.51716254 5.91015625 23.97265625 C5.89510482 25.64061312 5.88141722 27.3085829 5.86914062 28.9765625 C5.83611819 33.05891203 5.78436109 37.14064357 5.72265625 41.22265625 C1.14418815 42.51416904 -3.29781837 42.48344861 -8.02734375 42.53515625 C-8.89617187 42.56416016 -9.765 42.59316406 -10.66015625 42.62304688 C-16.66474225 42.68165019 -21.31011235 41.73942864 -26.27734375 38.22265625 C-28.97950132 34.70166305 -29.50005263 31.985019 -29.27734375 27.66015625 C-28.5796583 23.155535 -26.97445089 20.99548661 -23.27734375 18.22265625 C-19.37972426 16.30393105 -16.28624915 16.00268031 -11.96484375 16.09765625 C-10.89621094 16.11570312 -9.82757813 16.13375 -8.7265625 16.15234375 C-7.91832031 16.17554687 -7.11007813 16.19875 -6.27734375 16.22265625 C-6.93734375 14.24265625 -7.59734375 12.26265625 -8.27734375 10.22265625 C-14.74572958 8.67586833 -19.01233205 10.0771043 -25.27734375 12.22265625 C-25.27734375 8.59265625 -25.27734375 4.96265625 -25.27734375 1.22265625 C-17.98868887 -3.04387344 -7.50170645 -4.06826751 0 0 Z M-15.71484375 26.22265625 C-16.23046875 26.88265625 -16.74609375 27.54265625 -17.27734375 28.22265625 C-15.96838655 31.34463103 -15.96838655 31.34463103 -13.27734375 33.22265625 C-10.94435715 33.26288016 -8.61027709 33.26585872 -6.27734375 33.22265625 C-6.27734375 30.25265625 -6.27734375 27.28265625 -6.27734375 24.22265625 C-11.41460357 23.73775788 -11.41460357 23.73775788 -15.71484375 26.22265625 Z " fill="#2C2825" transform="translate(209.27734375,83.77734375)"/>
<path d="M0 0 C0 14.85 0 29.7 0 45 C7.26 45 14.52 45 22 45 C22 48.63 22 52.26 22 56 C10.78 56 -0.44 56 -12 56 C-12.18375731 48.82580835 -12.34294803 41.65977855 -12.43945312 34.48510742 C-12.47967477 32.04537291 -12.53426154 29.6058311 -12.60351562 27.16674805 C-12.70061981 23.6588594 -12.7459407 20.1535189 -12.78125 16.64453125 C-12.82254028 15.55477493 -12.86383057 14.46501862 -12.90637207 13.34223938 C-12.91072776 5.98472357 -12.91072776 5.98472357 -10.30639648 3.16879272 C-6.60943451 0.71628097 -4.51943731 0 0 0 Z " fill="#2C2825" transform="translate(155,69)"/>
<path d="M0 0 C0 18.15 0 36.3 0 55 C-3.96 55 -7.92 55 -12 55 C-12.12353963 47.95253918 -12.21431329 40.90570767 -12.2746582 33.85742188 C-12.29981212 31.45952375 -12.33393919 29.06170236 -12.37719727 26.6640625 C-12.43780735 23.21855751 -12.46620156 19.77406554 -12.48828125 16.328125 C-12.51408768 15.25508118 -12.5398941 14.18203735 -12.56648254 13.07647705 C-12.56928785 5.64278453 -12.56928785 5.64278453 -9.65698242 2.35449219 C-6.0949261 0.53860608 -4.05931168 0 0 0 Z " fill="#2C2825" transform="translate(317,70)"/>
<path d="M0 0 C0 18.15 0 36.3 0 55 C-3.96 55 -7.92 55 -12 55 C-12.14839575 48.1132958 -12.25724277 41.22752337 -12.32958984 34.33959961 C-12.35975015 31.99698678 -12.40068517 29.65448675 -12.45263672 27.31225586 C-12.52548101 23.94356459 -12.55946479 20.57636677 -12.5859375 17.20703125 C-12.61690521 16.16102249 -12.64787292 15.11501373 -12.67977905 14.03730774 C-12.68306553 6.92578103 -12.68306553 6.92578103 -10.69464111 4.23080444 C-7.09907025 1.16691135 -4.67299721 0 0 0 Z " fill="#2C2825" transform="translate(338,70)"/>
<path d="M0 0 C0 13.86 0 27.72 0 42 C-3.96 42 -7.92 42 -12 42 C-12.19815605 36.82241114 -12.34309889 31.64703814 -12.43945312 26.46655273 C-12.47962241 24.70574497 -12.53417284 22.94520306 -12.60351562 21.18530273 C-13.16401537 6.59170283 -13.16401537 6.59170283 -10.32421875 2.70849609 C-6.69998869 0.3256825 -4.37055137 0 0 0 Z " fill="#83B817" transform="translate(133,83)"/>
<path d="M0 0 C1.57312496 3.67062491 2.14440048 5.44302674 1.125 9.375 C0.75375 10.24125 0.3825 11.1075 0 12 C0.66 11.34 1.32 10.68 2 10 C3.32 10 4.64 10 6 10 C5.64192708 11.953125 5.28385417 13.90625 4.92578125 15.859375 C5.02418942 18.6976739 6.16521633 19.90579961 8 22 C5.06195004 22.08086376 2.12611925 22.1404283 -0.8125 22.1875 C-1.64587891 22.21263672 -2.47925781 22.23777344 -3.33789062 22.26367188 C-4.54155273 22.27817383 -4.54155273 22.27817383 -5.76953125 22.29296875 C-6.87711792 22.31653442 -6.87711792 22.31653442 -8.00708008 22.34057617 C-10.58000732 21.90088078 -11.44166869 21.0611553 -13 19 C-13.45185216 15.46049143 -13.42109443 13.66673285 -11.5 10.625 C-11.005 10.08875 -10.51 9.5525 -10 9 C-10.33 8.67 -10.66 8.34 -11 8 C-11.3125 5.125 -11.3125 5.125 -11 2 C-7.8024827 -1.96492145 -4.62667537 -0.97871979 0 0 Z M-5 3 C-5.33 4.32 -5.66 5.64 -6 7 C-5.01 7 -4.02 7 -3 7 C-3.33 5.68 -3.66 4.36 -4 3 C-4.33 3 -4.66 3 -5 3 Z M-7 13 C-7.59070014 14.94603274 -7.59070014 14.94603274 -8 17 C-6.93354885 18.29633621 -6.93354885 18.29633621 -4.4375 18.0625 C-3.633125 18.041875 -2.82875 18.02125 -2 18 C-3.65 16.35 -5.3 14.7 -7 13 Z " fill="#83B817" transform="translate(242,139)"/>
<path d="M0 0 C1 1 1 1 1.0625 3.5625 C1.041875 4.366875 1.02125 5.17125 1 6 C0.05125 5.67 -0.8975 5.34 -1.875 5 C-4.77062452 3.89840809 -4.77062452 3.89840809 -7 4 C-6.28995535 7.27856999 -6.28995535 7.27856999 -3.0625 8.5625 C-2.051875 9.036875 -1.04125 9.51125 0 10 C2 12 2 12 2.3125 15.4375 C2 19 2 19 0.765625 20.70703125 C-1.49107393 22.35961388 -2.79230527 22.34127495 -5.5625 22.25 C-6.74005859 22.22679687 -6.74005859 22.22679687 -7.94140625 22.203125 C-10 22 -10 22 -12 21 C-12 19.35 -12 17.7 -12 16 C-7.545 16.99 -7.545 16.99 -3 18 C-3.33 16.68 -3.66 15.36 -4 14 C-6.30252483 12.93097061 -8.6372026 11.92824183 -11 11 C-12.38550197 8.22899606 -12.1877467 6.0665294 -12 3 C-8.63448775 -2.04826837 -5.5160332 -1.02148763 0 0 Z " fill="#83B817" transform="translate(270,139)"/>
<path d="M0 0 C3.9375 0.5 3.9375 0.5 5.875 1.5625 C7.44918665 4.43307565 7.63323087 7.2747472 7.9375 10.5 C4.6375 10.83 1.3375 11.16 -2.0625 11.5 C-1.07982141 12.70561184 -1.07982141 12.70561184 0.78515625 12.59765625 C2.8359375 12.56510417 4.88671875 12.53255208 6.9375 12.5 C6.6075 14.15 6.2775 15.8 5.9375 17.5 C-3.07720128 18.27416328 -3.07720128 18.27416328 -6.6875 15.4375 C-8.41000853 11.75759541 -8.63722081 9.52304567 -8.0625 5.5 C-6.02149855 1.50303883 -4.39730862 0.18625801 0 0 Z M-2.0625 4.5 C-2.3925 5.49 -2.7225 6.48 -3.0625 7.5 C-1.0825 7.5 0.8975 7.5 2.9375 7.5 C2.6075 6.51 2.2775 5.52 1.9375 4.5 C0.6175 4.5 -0.7025 4.5 -2.0625 4.5 Z " fill="#83B817" transform="translate(212.0625,143.5)"/>
<path d="M0 0 C1.9375 1.0625 1.9375 1.0625 3 3 C3.6875 6.6875 3.6875 6.6875 4 10 C0.7 10.33 -2.6 10.66 -6 11 C-5.01732141 12.20561184 -5.01732141 12.20561184 -3.15234375 12.09765625 C-1.1015625 12.06510417 0.94921875 12.03255208 3 12 C2.67 13.65 2.34 15.3 2 17 C-2.76369856 17.46702927 -5.96672637 17.64062965 -10.125 15.0625 C-12.42444756 11.30673565 -12.26685788 9.32973398 -11.6875 5.0859375 C-9.74853572 -0.79705641 -5.42831795 -0.80461498 0 0 Z M-6 4 C-6.33 4.99 -6.66 5.98 -7 7 C-5.02 7 -3.04 7 -1 7 C-1.33 6.01 -1.66 5.02 -2 4 C-3.32 4 -4.64 4 -6 4 Z " fill="#83B817" transform="translate(365,144)"/>
<path d="M0 0 C2 1.0625 2 1.0625 3 3 C3.1875 6.6875 3.1875 6.6875 3 10 C-0.3 10 -3.6 10 -7 10 C-6.67 10.66 -6.34 11.32 -6 12 C-3.03 12 -0.06 12 3 12 C3 13.32 3 14.64 3 16 C-0.46822926 17.73411463 -4.2079795 17.45800603 -8 17 C-10.5625 15.5625 -10.5625 15.5625 -12 13 C-12.75280262 8.68129022 -12.7380068 5.26076161 -10.5 1.4375 C-6.73635524 -0.72659573 -4.31944059 -0.47993784 0 0 Z M-6 4 C-6.33 4.99 -6.66 5.98 -7 7 C-5.02 7 -3.04 7 -1 7 C-1.33 6.01 -1.66 5.02 -2 4 C-3.32 4 -4.64 4 -6 4 Z " fill="#83B817" transform="translate(173,144)"/>
<path d="M0 0 C3.9375 0.5 3.9375 0.5 5.9375 1.5625 C7.46440415 4.52087678 7.12218872 7.23716599 6.9375 10.5 C3.6375 10.5 0.3375 10.5 -3.0625 10.5 C-3.0625 11.16 -3.0625 11.82 -3.0625 12.5 C0.2375 12.5 3.5375 12.5 6.9375 12.5 C6.6075 14.15 6.2775 15.8 5.9375 17.5 C-3.07720128 18.27416328 -3.07720128 18.27416328 -6.6875 15.4375 C-8.41000853 11.75759541 -8.63722081 9.52304567 -8.0625 5.5 C-6.02149855 1.50303883 -4.39730862 0.18625801 0 0 Z M-2.0625 4.5 C-2.3925 5.49 -2.7225 6.48 -3.0625 7.5 C-1.0825 7.5 0.8975 7.5 2.9375 7.5 C2.6075 6.51 2.2775 5.52 1.9375 4.5 C0.6175 4.5 -0.7025 4.5 -2.0625 4.5 Z " fill="#83B817" transform="translate(308.0625,143.5)"/>
<path d="M0 0 C2.375 1.625 2.375 1.625 4 4 C4.48891657 7.35257076 4.35810604 9.26389315 2.875 12.3125 C0.29875435 14.63112109 -1.57091775 14.86003746 -5 15 C-7.74954328 14.03394425 -8.69007757 13.61984486 -10 11 C-10.57842047 3.71190211 -10.57842047 3.71190211 -8.375 1 C-5.296549 -0.29618989 -3.31123632 -0.48288863 0 0 Z " fill="#83B817" transform="translate(130,63)"/>
<path d="M0 0 C1.31291016 -0.05607422 1.31291016 -0.05607422 2.65234375 -0.11328125 C5.0625 0.3125 5.0625 0.3125 6.8671875 1.91015625 C8.45397662 5.09929124 8.3563244 7.51835343 8.25 11.0625 C8.22292969 12.23296875 8.19585937 13.4034375 8.16796875 14.609375 C8.13316406 15.50140625 8.09835937 16.3934375 8.0625 17.3125 C6.4125 17.3125 4.7625 17.3125 3.0625 17.3125 C2.7325 13.3525 2.4025 9.3925 2.0625 5.3125 C0.4125 4.9825 -1.2375 4.6525 -2.9375 4.3125 C-2.9375 8.6025 -2.9375 12.8925 -2.9375 17.3125 C-4.2575 17.3125 -5.5775 17.3125 -6.9375 17.3125 C-6.9375 12.0325 -6.9375 6.7525 -6.9375 1.3125 C-4.4933206 0.0904103 -2.72720128 0.07608932 0 0 Z " fill="#83B817" transform="translate(325.9375,143.6875)"/>
<path d="M0 0 C0 1.65 0 3.3 0 5 C-2.97 4.505 -2.97 4.505 -6 4 C-6 4.66 -6 5.32 -6 6 C-5.030625 6.309375 -4.06125 6.61875 -3.0625 6.9375 C0 8 0 8 1 9 C1.1875 11.9375 1.1875 11.9375 1 15 C-1 17 -1 17 -3.1640625 17.1953125 C-3.97617187 17.17210937 -4.78828125 17.14890625 -5.625 17.125 C-6.44226563 17.10695312 -7.25953125 17.08890625 -8.1015625 17.0703125 C-8.72804688 17.04710937 -9.35453125 17.02390625 -10 17 C-10.33 15.35 -10.66 13.7 -11 12 C-8.69 12 -6.38 12 -4 12 C-4.969375 11.62875 -5.93875 11.2575 -6.9375 10.875 C-10 9 -10 9 -11.0625 6 C-11 3 -11 3 -10.0625 1.125 C-6.75632849 -0.67836628 -3.72581793 -0.18323695 0 0 Z " fill="#83B817" transform="translate(382,144)"/>
<path d="M0 0 C5.94 0 11.88 0 18 0 C18 1.32 18 2.64 18 4 C15.69 4 13.38 4 11 4 C11 9.94 11 15.88 11 22 C9.68 22 8.36 22 7 22 C7 16.06 7 10.12 7 4 C4.69 4 2.38 4 0 4 C0 2.68 0 1.36 0 0 Z " fill="#83B817" transform="translate(143,139)"/>
<path d="M0 0 C0.33 1.65 0.66 3.3 1 5 C-0.134375 4.979375 -1.26875 4.95875 -2.4375 4.9375 C-5.81575674 4.58422523 -5.81575674 4.58422523 -7 6 C-7.16666667 8.5 -7.16666667 8.5 -7 11 C-5.81575674 12.41577477 -5.81575674 12.41577477 -2.4375 12.0625 C-0.7359375 12.0315625 -0.7359375 12.0315625 1 12 C0.67 13.65 0.34 15.3 0 17 C-8.03956273 17.77303488 -8.03956273 17.77303488 -11.5625 14.9375 C-13.37781677 11.22793965 -13.65622237 9.08316143 -13 5 C-9.24710838 -0.51205957 -6.17887554 -0.52363352 0 0 Z " fill="#83B817" transform="translate(350,144)"/>
<path d="M0 0 C-1.74604549 1.4630657 -3.49699453 2.9202808 -5.25 4.375 C-6.22453125 5.18710937 -7.1990625 5.99921875 -8.203125 6.8359375 C-12.72560921 10.33517808 -12.72560921 10.33517808 -15 11 C-18.015625 10.3203125 -18.015625 10.3203125 -21.25 9.125 C-22.32765625 8.73570313 -23.4053125 8.34640625 -24.515625 7.9453125 C-25.33546875 7.63335937 -26.1553125 7.32140625 -27 7 C-27 6.34 -27 5.68 -27 5 C-5.81475541 -1.9382518 -5.81475541 -1.9382518 0 0 Z " fill="#83B817" transform="translate(378,31)"/>
<path d="M0 0 C0 1.65 0 3.3 0 5 C-2.64 5 -5.28 5 -8 5 C-8 7.31 -8 9.62 -8 12 C-5.03 12 -2.06 12 1 12 C0.67 13.65 0.34 15.3 0 17 C-7.91470588 17.60882353 -7.91470588 17.60882353 -11.5625 15.5625 C-13.7145847 11.72617511 -13.74831272 8.29295189 -13 4 C-10.0569781 -1.24625643 -5.35967538 -0.41228272 0 0 Z " fill="#83B817" transform="translate(288,144)"/>
<path d="M0 0 C0 1.65 0 3.3 0 5 C-1.65 5 -3.3 5 -5 5 C-5.33 8.96 -5.66 12.92 -6 17 C-7.32 17 -8.64 17 -10 17 C-10 11.72 -10 6.44 -10 1 C-6.78548731 -0.60725635 -3.56387464 -0.05748185 0 0 Z " fill="#83B817" transform="translate(203,144)"/>
<path d="M0 0 C0 1.65 0 3.3 0 5 C-1.65 5 -3.3 5 -5 5 C-5.33 8.96 -5.66 12.92 -6 17 C-7.32 17 -8.64 17 -10 17 C-10 11.72 -10 6.44 -10 1 C-6.78548731 -0.60725635 -3.56387464 -0.05748185 0 0 Z " fill="#83B817" transform="translate(190,144)"/>
<path d="M0 0 C1.65 0 3.3 0 5 0 C5 5.61 5 11.22 5 17 C3.35 17 1.7 17 0 17 C0 11.39 0 5.78 0 0 Z " fill="#83B817" transform="translate(292,144)"/>
<path d="M0 0 C1.98 0.495 1.98 0.495 4 1 C4 2.32 4 3.64 4 5 C2.35 5 0.7 5 -1 5 C-0.67 3.35 -0.34 1.7 0 0 Z " fill="#83B817" transform="translate(293,137)"/>
</svg>
